<?xml version="1.0" encoding="UTF-8" standalone="no"?>
<!-- Created with Inkscape (http://www.inkscape.org/) -->

<svg
   width="7.5mm"
   height="7.5mm"
   viewBox="0 0 7.5 7.5"
   version="1.1"
   id="svg5"
   inkscape:version="1.1 (c68e22c387, 2021-05-23)"
   sodipodi:docname="logo.svg"
   inkscape:export-filename="D:\cellar\png\logo.png"
   inkscape:export-xdpi="216.74667"
   inkscape:export-ydpi="216.74667"
   xmlns:inkscape="http://www.inkscape.org/namespaces/inkscape"
   xmlns:sodipodi="http://sodipodi.sourceforge.net/DTD/sodipodi-0.dtd"
   xmlns="http://www.w3.org/2000/svg"
   xmlns:svg="http://www.w3.org/2000/svg">
  <sodipodi:namedview
     id="namedview7"
     pagecolor="#ffffff"
     bordercolor="#666666"
     borderopacity="1.0"
     inkscape:pageshadow="2"
     inkscape:pageopacity="0.0"
     inkscape:pagecheckerboard="true"
     inkscape:document-units="mm"
     showgrid="false"
     inkscape:zoom="24.886868"
     inkscape:cx="10.909368"
     inkscape:cy="12.757732"
     inkscape:window-width="2560"
     inkscape:window-height="1369"
     inkscape:window-x="-8"
     inkscape:window-y="-8"
     inkscape:window-maximized="1"
     inkscape:current-layer="layer1" />
  <defs
     id="defs2" />
  <g
     inkscape:label="Layer 1"
     inkscape:groupmode="layer"
     id="layer1"
     transform="translate(-99.264791,-103.18219)">
    <text
       xml:space="preserve"
       style="font-style:normal;font-weight:normal;font-size:10.5833px;line-height:1.25;font-family:sans-serif;fill:#000000;fill-opacity:1;stroke:none;stroke-width:0.264583"
       x="237.4348"
       y="53.164223"
       id="text2154"><tspan
         sodipodi:role="line"
         id="tspan2152"
         style="font-style:normal;font-variant:normal;font-weight:normal;font-stretch:normal;font-family:AlleghenyPA;-inkscape-font-specification:AlleghenyPA;stroke-width:0.264583"
         x="237.4348"
         y="53.164223"
         rotate="0" /><tspan
         sodipodi:role="line"
         style="font-style:normal;font-variant:normal;font-weight:normal;font-stretch:normal;font-family:AlleghenyPA;-inkscape-font-specification:AlleghenyPA;stroke-width:0.264583"
         x="237.4348"
         y="66.393349"
         rotate="0"
         id="tspan4148" /></text>
    <text
       xml:space="preserve"
       style="font-style:normal;font-weight:normal;font-size:10.5833px;line-height:1.25;font-family:sans-serif;fill:#000000;fill-opacity:1;stroke:none;stroke-width:0.264583"
       x="272.79742"
       y="70.725258"
       id="text13400"><tspan
         sodipodi:role="line"
         id="tspan13398"
         style="stroke-width:0.264583"
         x="272.79742"
         y="70.725258" /></text>
    <g
       aria-label="y"
       id="text86016"
       style="font-size:10.5833px;line-height:1.25;fill:#a4a4a4;stroke-width:0.264583">
      <path
         d="m 99.424987,103.22471 q 0.351399,0.82682 1.157553,1.18339 0.40307,0.17053 0.85265,0.17053 0.79065,0 1.43144,-0.54777 0.2222,-0.21704 0.29455,-0.32556 0.14469,-0.2067 0.22221,-0.37207 0.0413,-0.10335 0.0517,-0.10852 0.14986,0.39274 0.14986,0.74414 v 0.0465 q 0,0.005 0.005,0.0103 -0.005,0.005 -0.005,0.0103 v 0.0465 q 0,0.43925 -0.22738,0.92501 0,0.031 -0.25838,0.84749 -1.6278,4.1341 -1.68981,4.31496 -0.0569,0.11886 -0.1602,0.17054 -0.0879,0.0413 -0.17053,0.0413 -0.0775,0 -0.42892,-0.11886 -0.12402,-0.031 -0.18086,-0.10852 -0.0982,-0.10852 -0.0982,-0.24288 0,-0.0775 0.093,-0.34106 l 1.41076,-3.4313 q -0.22737,0.0517 -0.44441,0.0517 -0.73897,0 -1.35392,-0.47542 -0.253216,-0.21704 -0.356568,-0.36173 -0.289387,-0.36691 -0.408243,-0.894 -0.04134,-0.20671 -0.04134,-0.37724 v -0.0362 q 0,-0.0103 -0.0052,-0.0258 0.0052,-0.0103 0.0052,-0.0207 v -0.031 q 0,-0.3514 0.149862,-0.74414 z"
         style="font-family:Berni;-inkscape-font-specification:Berni"
         id="path929" />
    </g>
    <g
       aria-label="y"
       transform="scale(-1)"
       id="text87270"
       style="font-size:10.5833px;line-height:1.25;fill:#a4a4a4;stroke-width:0.264583">
      <path
         d="m -106.66424,-110.63623 q 0.3514,0.82682 1.15755,1.18338 0.40307,0.17054 0.85266,0.17054 0.79065,0 1.43143,-0.54777 0.22221,-0.21704 0.29456,-0.32556 0.14469,-0.20671 0.2222,-0.37207 0.0413,-0.10335 0.0517,-0.10852 0.14986,0.39274 0.14986,0.74414 v 0.0465 q 0,0.005 0.005,0.0103 -0.005,0.005 -0.005,0.0103 v 0.0465 q 0,0.43925 -0.22737,0.92501 0,0.031 -0.25839,0.84749 -1.6278,4.1341 -1.68981,4.31497 -0.0568,0.11885 -0.1602,0.17053 -0.0879,0.0413 -0.17053,0.0413 -0.0775,0 -0.42891,-0.11885 -0.12402,-0.031 -0.18087,-0.10852 -0.0982,-0.10853 -0.0982,-0.24288 0,-0.0775 0.093,-0.34107 l 1.41077,-3.4313 q -0.22738,0.0517 -0.44442,0.0517 -0.73897,0 -1.35392,-0.47543 -0.25321,-0.21704 -0.35656,-0.36173 -0.28939,-0.3669 -0.40825,-0.894 -0.0413,-0.2067 -0.0413,-0.37724 v -0.0362 q 0,-0.0103 -0.005,-0.0258 0.005,-0.0103 0.005,-0.0207 v -0.031 q 0,-0.3514 0.14986,-0.74414 z"
         style="font-family:Berni;-inkscape-font-specification:Berni"
         id="path932" />
    </g>
  </g>
</svg>
